<?xml version="1.0" standalone="no"?><!DOCTYPE svg PUBLIC "-//W3C//DTD SVG 1.1//EN" "http://www.w3.org/Graphics/SVG/1.1/DTD/svg11.dtd"><svg t="1641352219785" class="icon" viewBox="0 0 1024 1024" version="1.1" xmlns="http://www.w3.org/2000/svg" p-id="3606" xmlns:xlink="http://www.w3.org/1999/xlink" width="50" height="50"><defs><style type="text/css"></style></defs><path d="M832 389.3c-0.5 49.1-16.2 94.1-37.5 137.4-31.8 65-74 123-119.8 178.6-42.6 51.7-88.5 100.6-137.4 146.4-17.1 16-32.7 16.5-50.2 0.8-90.6-81.4-172.1-170.6-234.3-276.1-10.1-17.2-19.3-34.9-27.2-53.2-7.5-17.4-1-35.5 15.1-43 16.2-7.5 33.9-0.9 41.8 16.2 37.2 80.8 90.6 149.5 150 214.6 22.9 25.1 46.9 50.2 71.8 73.4 3.1 2.9 9 4.2 13.4-0.2 82.4-83 158.5-170 214.6-273.6C748.6 480.5 768 425.9 768 389c0-52.3-5.7-75.5-30.3-121-46.8-86.5-119.2-140-218.7-140-113.1 0-213.4 69.6-249 177.3-8.9 27.1-13.6 54.8-14 83.3-0.3 20.4-13.7 34.7-32.1 34.7-18.5 0-32-14.8-31.9-34.8 0.4-151.5 104.8-282.8 252-316.8C565.8 43.6 696.2 94.1 769.9 198c40.7 57.3 60.9 121.2 62.1 191.3z" p-id="3607"></path><path d="M512.5 256c-70.9-0.1-128.5 57.2-128.5 128 0 70.3 57.3 127.9 127.5 128 70.8 0.2 128.5-57.3 128.5-128 0-70.4-57.3-127.9-127.5-128z m0.6 192c-36 0.3-65.2-28.4-65.1-64.1 0.1-35.3 28.8-63.9 64.4-63.9 34.7 0 63.5 28.7 63.6 63.6 0.1 34.9-28.3 64.1-62.9 64.4zM960 928v-0.4-1-0.6c0-0.4 0-0.7-0.1-1.1 0-0.2 0-0.4-0.1-0.5 0-0.3-0.1-0.6-0.1-1 0-0.2-0.1-0.4-0.1-0.7 0-0.2-0.1-0.5-0.1-0.7-0.1-0.3-0.1-0.6-0.2-1 0-0.1 0-0.2-0.1-0.3-0.9-3.9-2.4-7.5-4.6-10.7L827 689.3c-8.6-14.9-27.8-20-42.6-11.4l-1.4 0.8c-14.9 8.6-20 27.8-11.4 42.6L872.5 896h-721l100.3-173.7c8.8-15.2 3.5-34.9-11.7-43.7-15.2-8.8-34.9-3.5-43.7 11.7L68.3 912c-1.2 2.1-2.1 4.2-2.8 6.5v0.1c-0.1 0.4-0.3 0.9-0.4 1.3 0 0.1-0.1 0.3-0.1 0.4-0.1 0.3-0.2 0.7-0.2 1 0 0.2-0.1 0.5-0.1 0.7 0 0.2-0.1 0.5-0.1 0.7-0.1 0.3-0.1 0.7-0.1 1 0 0.2 0 0.3-0.1 0.5 0 0.4-0.1 0.8-0.1 1.2v0.2c-0.1 0.8-0.1 1.5-0.1 2.3 0 4.4 0.9 8.7 2.6 12.5 2.6 6.2 7.2 11.6 13.4 15.2 4.5 2.6 9.4 4 14.2 4.2h833.8c16.8 0 30.7-13.2 31.9-29.7v-0.2-1-0.7c-0.1 0-0.1-0.1-0.1-0.2z" p-id="3608"></path></svg>