<svg width="168" height="46" viewBox="0 0 168 46" fill="none" xmlns="http://www.w3.org/2000/svg">
<rect x="4.20587" y="4.9118" width="18.3529" height="3.05882" fill="black"/>
<rect x="5.35297" y="4.9118" width="18.3529" height="3.05882" transform="rotate(90 5.35297 4.9118)" fill="black"/>
<rect x="5.35297" y="19.0588" width="18.3529" height="3.05882" transform="rotate(90 5.35297 19.0588)" fill="black"/>
<rect x="4.20587" y="34.3529" width="18.3529" height="3.05882" fill="black"/>
<rect x="4.20587" y="19.4412" width="18.3529" height="3.05882" fill="black"/>
<circle cx="3.63235" cy="6.63235" r="3" fill="black" stroke="black" stroke-width="1.26471"/>
<circle cx="22.3676" cy="6.63235" r="3" fill="black" stroke="black" stroke-width="1.26471"/>
<circle cx="3.63235" cy="21.1618" r="3" fill="black" stroke="black" stroke-width="1.26471"/>
<circle cx="3.63235" cy="36.0735" r="3" fill="black" stroke="black" stroke-width="1.26471"/>
<circle cx="22.3676" cy="21.1618" r="3" fill="black" stroke="black" stroke-width="1.26471"/>
<circle cx="22.3676" cy="36.0735" r="3" fill="black" stroke="black" stroke-width="1.26471"/>
<path d="M40.944 18.884C39.72 18.884 38.604 19.172 37.596 19.748C36.588 20.288 35.76 21.08 35.112 22.124V19.388H32.232V38H35.112V26.768C35.22 25.076 35.76 23.744 36.768 22.736C37.704 21.8 38.82 21.332 40.116 21.332C43.356 21.332 45.012 23.132 45.012 26.768V38H47.892V26.552C47.892 21.44 45.552 18.884 40.944 18.884ZM60.0094 18.884C57.4174 18.884 55.3654 19.784 53.8534 21.62C52.3414 23.348 51.6214 25.544 51.6214 28.28C51.6214 30.98 52.3414 33.176 53.8534 34.904C55.3654 36.668 57.4174 37.568 60.0094 37.568C62.8174 37.568 64.9054 36.308 66.2734 33.824V37.1C66.2734 41.204 64.4014 43.292 60.6574 43.292C58.9654 43.292 57.7054 42.968 56.8774 42.356C56.0494 41.78 55.5094 40.844 55.2934 39.584H52.4134C52.7374 41.6 53.5654 43.112 54.8974 44.12C56.1934 45.128 58.1374 45.632 60.6574 45.632C66.3094 45.632 69.1534 42.644 69.1534 36.704V19.388H66.2734V22.592C64.9054 20.108 62.8174 18.884 60.0094 18.884ZM60.4414 21.26C62.2774 21.26 63.7174 21.908 64.7974 23.276C65.8054 24.5 66.3094 26.192 66.3094 28.28C66.3094 30.296 65.8054 31.952 64.7974 33.212C63.7174 34.508 62.2774 35.156 60.4054 35.156C58.3894 35.156 56.9134 34.436 55.9054 33.068C55.0054 31.844 54.5734 30.224 54.5734 28.28C54.5734 26.192 55.0774 24.5 56.0854 23.276C57.1294 21.908 58.5694 21.26 60.4414 21.26ZM73.6109 19.388V30.908C73.6109 35.948 75.8429 38.504 80.3789 38.504C82.8989 38.504 84.9149 37.352 86.4269 35.12V38H89.3069V19.388H86.4269V30.728C86.2109 32.312 85.5989 33.608 84.5909 34.616C83.6189 35.552 82.5029 36.056 81.2789 36.056C79.5869 36.056 78.3629 35.588 77.6069 34.724C76.8509 33.86 76.4909 32.528 76.4909 30.764V19.388H73.6109ZM94.3314 11.792V38H97.1754V11.792H94.3314ZM110.328 18.884C108.096 18.884 106.332 19.316 104.964 20.18C103.452 21.116 102.48 22.592 102.084 24.536L104.928 24.752C105.216 23.564 105.828 22.664 106.8 22.088C107.664 21.512 108.78 21.26 110.148 21.26C113.388 21.26 115.008 22.808 115.008 25.94V26.912L110.544 26.984C107.736 27.02 105.576 27.56 104.064 28.568C102.336 29.648 101.508 31.232 101.508 33.356C101.508 34.868 102.084 36.128 103.236 37.1C104.352 38.036 105.828 38.504 107.7 38.504C109.428 38.504 110.976 38.108 112.344 37.352C113.496 36.704 114.468 35.876 115.188 34.868V38H117.888V26.048C117.888 23.888 117.312 22.196 116.232 20.972C114.936 19.568 112.992 18.884 110.328 18.884ZM115.008 29.072V30.656C115.008 32.096 114.324 33.392 112.992 34.508C111.624 35.66 110.076 36.236 108.312 36.236C107.16 36.236 106.224 35.948 105.504 35.408C104.784 34.832 104.46 34.148 104.46 33.284C104.46 30.584 106.548 29.216 110.724 29.144L115.008 29.072Z" fill="black"/>
</svg>
